<?xml version="1.0" standalone="no"?><!DOCTYPE svg PUBLIC "-//W3C//DTD SVG 1.1//EN" "http://www.w3.org/Graphics/SVG/1.1/DTD/svg11.dtd"><svg t="1773837524289" class="icon" viewBox="0 0 1024 1024" version="1.1" xmlns="http://www.w3.org/2000/svg" p-id="9669" xmlns:xlink="http://www.w3.org/1999/xlink" width="200" height="200"><path d="M1004.202667 464.896L628.053333 88.746667c-25.941333-25.941333-68.266667-25.941333-94.208 0-25.941333 25.941333-25.941333 68.266667 0 94.208l262.826667 262.826666H66.218667c-23.893333 0-45.738667 12.970667-57.344 33.450667-11.605333 20.48-11.605333 45.738667 0 66.218667 11.605333 20.48 34.133333 33.450667 57.344 33.450666h730.453333l-262.826667 262.826667c-17.066667 17.066667-23.210667 40.96-17.066666 64.170667 6.144 23.210667 23.893333 40.96 47.104 47.104 23.210667 6.144 47.104-0.682667 64.170666-17.066667L1004.202667 559.786667c26.624-26.624 26.624-68.949333 0-94.890667z" fill="#ffffff" p-id="9670"></path></svg>