<?xml version="1.0" standalone="no"?><!DOCTYPE svg PUBLIC "-//W3C//DTD SVG 1.1//EN" "http://www.w3.org/Graphics/SVG/1.1/DTD/svg11.dtd"><svg t="1775738798191" class="icon" viewBox="0 0 1024 1024" version="1.1" xmlns="http://www.w3.org/2000/svg" p-id="4796" xmlns:xlink="http://www.w3.org/1999/xlink" width="200" height="200"><path d="M512 0a64 64 0 0 1 64 64v421.546667l146.773333-146.773334a64 64 0 0 1 90.453334 90.453334l-256 256a64 64 0 0 1-90.453334 0l-256-256a64 64 0 0 1 90.453334-90.453334l146.773333 146.773334V64A64 64 0 0 1 512 0z" p-id="4797" fill="#707070"></path><path d="M128 576a64 64 0 0 0-128 0v128A320 320 0 0 0 320 1024h384A320 320 0 0 0 1024 704v-128a64 64 0 0 0-128 0v128a192 192 0 0 1-192 192h-384A192 192 0 0 1 128 704v-128z" p-id="4798" fill="#707070"></path></svg>