<?xml version="1.0" standalone="no"?><!DOCTYPE svg PUBLIC "-//W3C//DTD SVG 1.1//EN" "http://www.w3.org/Graphics/SVG/1.1/DTD/svg11.dtd"><svg t="1776091631476" class="icon" viewBox="0 0 1024 1024" version="1.1" xmlns="http://www.w3.org/2000/svg" p-id="17793" xmlns:xlink="http://www.w3.org/1999/xlink" width="200" height="200"><path d="M469.333333 128a42.666667 42.666667 0 0 1 0 85.333333H213.333333v597.333334h597.333334v-256l0.298666-4.992A42.666667 42.666667 0 0 1 896 554.666667v256a85.333333 85.333333 0 0 1-85.333333 85.333333H213.333333a85.333333 85.333333 0 0 1-85.333333-85.333333V213.333333a85.333333 85.333333 0 0 1 85.333333-85.333333z m414.72 12.501333a42.666667 42.666667 0 0 1 0 60.330667L491.861333 593.066667a42.666667 42.666667 0 0 1-60.330666-60.330667l392.192-392.192a42.666667 42.666667 0 0 1 60.330666 0z" fill="#8a8a8a" p-id="17794"></path></svg>