<?xml version="1.0" standalone="no"?><!DOCTYPE svg PUBLIC "-//W3C//DTD SVG 1.1//EN" "http://www.w3.org/Graphics/SVG/1.1/DTD/svg11.dtd"><svg t="1775908407656" class="icon" viewBox="0 0 1024 1024" version="1.1" xmlns="http://www.w3.org/2000/svg" p-id="5003" xmlns:xlink="http://www.w3.org/1999/xlink" width="200" height="200"><path d="M896.717 163.328l-38.195-38.246a54.016 54.016 0 0 0-76.39 0l-37.018 37.017 114.585 114.586 37.018-37.018a54.016 54.016 0 0 0 0-76.39zM530.739 101.99H171.827c-38.912 0-70.502 31.59-70.502 70.503V852.89c0 38.912 31.539 70.502 70.502 70.502h680.346c38.912 0 70.502-31.59 70.502-70.502V494.234a39.578 39.578 0 1 0-79.155 0v350.003H178.432V179.149l352.256 0.051a38.605 38.605 0 0 0 0-77.21z" p-id="5004" fill="#707070"></path><path d="M820.326 316.058L705.69 201.472 395.776 511.488l0.205 0.205-18.842 109.26a20.685 20.685 0 0 0 23.91 23.86l109.057-18.995 0.256 0.256 310.016-310.016z" p-id="5005" fill="#707070"></path></svg>