<?xml version="1.0" standalone="no"?><!DOCTYPE svg PUBLIC "-//W3C//DTD SVG 1.1//EN" "http://www.w3.org/Graphics/SVG/1.1/DTD/svg11.dtd"><svg t="1773732938098" class="icon" viewBox="0 0 1024 1024" version="1.1" xmlns="http://www.w3.org/2000/svg" p-id="6183" data-spm-anchor-id="a313x.search_index.0.i8.70913a81xpIc2u" xmlns:xlink="http://www.w3.org/1999/xlink" width="200" height="200"><path d="M0 512C0 229.248 229.248 0 512 0s512 229.248 512 512-229.248 512-512 512S0 794.752 0 512z" fill="#4594D5" p-id="6184"></path><path d="M512 192c176.768 0 320 143.232 320 320S688.768 832 512 832 192 688.768 192 512s143.232-320 320-320z" fill="#ffffff" p-id="6185" data-spm-anchor-id="a313x.search_index.0.i7.70913a81xpIc2u" class="selected"></path><path d="M691.968 436.864a34.944 34.944 0 0 0-46.08-17.92c-2.944 1.28-5.632 2.944-8.192 4.992L488.576 546.56c-13.184 10.88-32.256 10.624-45.184-0.64l-53.632-46.464a42.2784 42.2784 0 0 0-63.872 10.24c-9.856 16.512-7.296 37.632 6.272 51.328l108.8 109.568a34.9952 34.9952 0 0 0 49.536 0.128l0.128-0.128 194.048-195.072c10.24-10.112 13.056-25.472 7.296-38.656" fill="#4594D5" p-id="6186"></path></svg>