<?xml version="1.0" standalone="no"?><!DOCTYPE svg PUBLIC "-//W3C//DTD SVG 1.1//EN" "http://www.w3.org/Graphics/SVG/1.1/DTD/svg11.dtd"><svg t="1774452230439" class="icon" viewBox="0 0 1024 1024" version="1.1" xmlns="http://www.w3.org/2000/svg" p-id="5949" xmlns:xlink="http://www.w3.org/1999/xlink" width="200" height="200"><path d="M522.44898 104.489796c230.838857 0 417.959184 187.120327 417.959183 417.959184s-187.120327 417.959184-417.959183 417.959183S104.489796 753.287837 104.489796 522.44898 291.610122 104.489796 522.44898 104.489796z m0 83.591837C337.773714 188.081633 188.081633 337.773714 188.081633 522.44898s149.692082 334.367347 334.367347 334.367347 334.367347-149.692082 334.367347-334.367347S707.124245 188.081633 522.44898 188.081633z m-10.574368 445.314612c10.574367 0 19.079837 0.585143 25.537306 1.755428 6.478367 1.170286 11.452082 3.531755 14.983837 7.042613 3.510857 3.531755 5.955918 8.526367 7.314286 14.983836 1.379265 6.457469 2.068898 14.774857 2.068898 24.931266 0 10.574367-0.689633 19.079837-2.048 25.537306-1.379265 6.478367-3.824327 11.452082-7.335184 14.983837-3.531755 3.510857-8.526367 5.851429-14.983837 7.042612a148.396408 148.396408 0 0 1-25.537306 1.755428c-10.553469 0-19.079837-0.585143-25.537306-1.755428-6.457469-1.170286-11.535673-3.531755-15.25551-7.042612-3.719837-3.531755-6.164898-8.526367-7.335184-14.983837a148.396408 148.396408 0 0 1-1.755428-25.537306c0-10.156408 0.585143-18.473796 1.755428-24.931266 1.170286-6.478367 3.615347-11.452082 7.335184-14.983836 3.719837-3.510857 8.798041-5.851429 15.25551-7.042613a148.396408 148.396408 0 0 1 25.537306-1.755428zM506.608327 313.469388c23.865469 0 44.408163 1.567347 61.628081 4.702041 17.219918 3.134694 31.409633 8.609959 42.569143 16.425795 11.138612 7.836735 19.267918 18.494694 24.346122 31.994776 5.099102 13.500082 7.627755 30.427429 7.627756 50.782041 0 13.688163-0.877714 25.432816-2.633143 35.213061a95.252898 95.252898 0 0 1-8.798041 26.707592c-4.116898 8.024816-9.613061 15.46449-16.446694 22.31902-6.854531 6.854531-15.15102 14.001633-24.952163 21.420408-8.986122 6.645551-16.237714 12.538776-21.71298 17.61698a113.078857 113.078857 0 0 0-12.914939 13.792653c-3.134694 4.116898-5.287184 8.212898-6.457469 12.329796a50.176 50.176 0 0 0-1.755429 13.792653v13.500082h-71.617306v-26.415021l0.125388-6.03951c0.250776-5.914122 0.898612-11.431184 1.922612-16.572082 1.379265-6.833633 3.824327-13.374694 7.335184-19.644081 3.531755-6.269388 8.233796-12.538776 14.085224-18.808163 5.872327-6.269388 13.123918-13.10302 21.733878-20.542694 6.269388-5.078204 11.431184-9.780245 15.548082-14.085225a66.037551 66.037551 0 0 0 9.696653-12.622367 39.497143 39.497143 0 0 0 4.681143-13.20751 101.146122 101.146122 0 0 0 1.170285-16.425796c0-8.986122-0.961306-16.237714-2.925714-21.733878a24.868571 24.868571 0 0 0-10.281796-12.914939c-4.890122-3.134694-11.347592-5.266286-19.35151-6.436571a209.606531 209.606531 0 0 0-29.654204-1.776327 271.673469 271.673469 0 0 0-37.281959 2.654041c-12.705959 1.755429-24.158041 4.20049-34.335347 7.314286v-72.766694l5.642449-1.525551a291.317551 291.317551 0 0 1 33.68751-6.123102c15.25551-1.94351 31.702204-2.925714 49.319184-2.925714z" fill="#707070" p-id="5950"></path></svg>