<?xml version="1.0" standalone="no"?><!DOCTYPE svg PUBLIC "-//W3C//DTD SVG 1.1//EN" "http://www.w3.org/Graphics/SVG/1.1/DTD/svg11.dtd"><svg t="1774531094518" class="icon" viewBox="0 0 1024 1024" version="1.1" xmlns="http://www.w3.org/2000/svg" p-id="2879" xmlns:xlink="http://www.w3.org/1999/xlink" width="200" height="200"><path d="M974.754909 315.345455c108.613818 232.913455 7.842909 509.789091-225.093818 618.402909A465.454545 465.454545 0 0 1 230.4 847.546182a46.545455 46.545455 0 0 1 64.488727-67.118546 372.363636 372.363636 0 0 0 415.418182 68.957091c186.344727-86.877091 266.961455-308.363636 180.084364-494.708363C803.490909 168.331636 582.004364 87.738182 395.636364 174.615273a371.805091 371.805091 0 0 0-188.462546 199.377454l63.069091 5.306182a23.272727 23.272727 0 0 1 17.198546 36.468364l-123.857455 178.269091a46.312727 46.312727 0 0 1-41.588364 19.781818 41.634909 41.634909 0 0 1-35.770181-26.926546L12.893091 391.051636a23.272727 23.272727 0 0 1 23.738182-31.371636l74.472727 6.260364A464.896 464.896 0 0 1 356.305455 90.251636C589.265455-18.385455 866.141091 82.385455 974.754909 315.322182zM529.733818 232.727273a46.545455 46.545455 0 0 1 46.405818 43.054545l0.139637 3.490909v228.887273l139.473454 79.802182a46.545455 46.545455 0 0 1 18.967273 60.276363l-1.675636 3.258182a46.545455 46.545455 0 0 1-60.276364 18.944l-3.258182-1.675636-151.179636-86.481455a69.818182 69.818182 0 0 1-35.002182-55.924363l-0.139636-4.677818V279.272727a46.545455 46.545455 0 0 1 46.545454-46.545454z" fill="#707070" p-id="2880"></path></svg>