<?xml version="1.0" standalone="no"?><!DOCTYPE svg PUBLIC "-//W3C//DTD SVG 1.1//EN" "http://www.w3.org/Graphics/SVG/1.1/DTD/svg11.dtd"><svg t="1773838728330" class="icon" viewBox="0 0 1024 1024" version="1.1" xmlns="http://www.w3.org/2000/svg" p-id="23470" xmlns:xlink="http://www.w3.org/1999/xlink" width="200" height="200"><path d="M469.333333 202.666667v213.333333a53.393333 53.393333 0 0 1-53.333333 53.333333H202.666667c-64.7 0-117.333333-52.666667-117.333334-117.333333V202.666667c0-64.666667 52.666667-117.333333 117.333334-117.333334h149.333333c64.7 0 117.333333 52.666667 117.333333 117.333334z m352-117.333334h-149.333333c-64.666667 0-117.333333 52.666667-117.333333 117.333334v213.333333a53.393333 53.393333 0 0 0 53.333333 53.333333h213.333333c64.666667 0 117.333333-52.666667 117.333334-117.333333V202.666667c0-64.666667-52.633333-117.333333-117.333334-117.333334zM416 554.666667H202.666667c-64.7 0-117.333333 52.666667-117.333334 117.333333v149.333333c0 64.666667 52.633333 117.333333 117.333334 117.333334h149.333333c64.666667 0 117.333333-52.666667 117.333333-117.333334V608a53.393333 53.393333 0 0 0-53.333333-53.333333z m405.333333 0H608a53.393333 53.393333 0 0 0-53.333333 53.333333v213.333333c0 64.666667 52.666667 117.333333 117.333333 117.333334h149.333333c64.666667 0 117.333333-52.666667 117.333334-117.333334v-149.333333c0-64.666667-52.633333-117.333333-117.333334-117.333333z" fill="#1296db" p-id="23471"></path></svg>