<?xml version="1.0" standalone="no"?><!DOCTYPE svg PUBLIC "-//W3C//DTD SVG 1.1//EN" "http://www.w3.org/Graphics/SVG/1.1/DTD/svg11.dtd"><svg t="1774352571222" class="icon" viewBox="0 0 1024 1024" version="1.1" xmlns="http://www.w3.org/2000/svg" p-id="4787" xmlns:xlink="http://www.w3.org/1999/xlink" width="200" height="200"><path d="M768 682.666667v170.666666a42.666667 42.666667 0 0 1-42.666667 42.666667H298.666667a42.666667 42.666667 0 0 1-42.666667-42.666667v-170.666666H128V341.333333a85.333333 85.333333 0 0 1 85.333333-85.333333h42.666667V170.666667a42.666667 42.666667 0 0 1 42.666667-42.666667h426.666666a42.666667 42.666667 0 0 1 42.666667 42.666667v85.333333h42.666667a85.333333 85.333333 0 0 1 85.333333 85.333333v341.333334h-128z m-85.333333-170.666667H341.333333v298.666667h341.333334v-298.666667z m0-298.666667H341.333333v42.666667h341.333334V213.333333z m85.333333 384h42.666667V341.333333H213.333333v256h42.666667v-128a42.666667 42.666667 0 0 1 42.666667-42.666666h426.666666a42.666667 42.666667 0 0 1 42.666667 42.666666v128z" fill="#707070" p-id="4788"></path></svg>