<?xml version="1.0" standalone="no"?><!DOCTYPE svg PUBLIC "-//W3C//DTD SVG 1.1//EN" "http://www.w3.org/Graphics/SVG/1.1/DTD/svg11.dtd"><svg t="1775829425210" class="icon" viewBox="0 0 1024 1024" version="1.1" xmlns="http://www.w3.org/2000/svg" p-id="5350" xmlns:xlink="http://www.w3.org/1999/xlink" width="200" height="200"><path d="M557.91160889 964.83555555C788.23424 942.13461333 966.81984 744.01564445 967.11111111 512.54613333l-0.01820444-0.45511111V512c0-3.09475555-0.18204445-6.13489778-0.21845334-9.21144889-0.09102222-4.73315555-0.12743111-9.41169778-0.36408888-14.10844444-0.03640889-0.72817778-0.12743111-1.45635555-0.14563556-2.18453334a449.66798222 449.66798222 0 0 0-24.90368-124.88248888c-0.78279111-2.20273778-1.49276445-4.44188445-2.31196444-6.62641778-1.40174222-3.82293333-2.96732445-7.59125333-4.47829334-11.37777778-1.34712889-3.36782222-2.63964445-6.75384889-4.05959111-10.08526222l-0.72817778-1.82044445c-0.18204445-0.36408889-0.41870222-0.67356445-0.58254222-1.03765333C859.10414222 169.70183111 698.52273778 56.87068445 512 56.87068445 261.03352889 56.88888889 56.88888889 261.06993778 56.88888889 512a54.61333333 54.61333333 0 1 0 109.22666666 0c0-190.70976 155.15648-345.88444445 345.88444445-345.88444445 142.24952889 0 264.65621333 86.39829333 317.70396445 209.4239289 2.4576 5.7344 4.47829333 11.61443555 6.62641777 17.43985777 1.87505778 5.13365333 3.98677333 10.15808 5.64337778 15.38275556 1.52917333 4.84238222 2.54862222 9.79399111 3.85934222 14.69098667 1.71121778 6.33514667 3.60448 12.59747555 4.9152 19.06005333 0.85560889 4.096 1.23790222 8.26481778 1.92967111 12.37902222 1.25610667 7.35459555 2.63964445 14.63637333 3.40423112 22.1184 1.16508445 11.68725333 1.80224 23.48373333 1.80224 35.40764445 0 190.72796445-155.17468445 345.88444445-345.88444445 345.88444444V743.72437333a18.20444445 18.20444445 0 0 0-28.08945778-15.29173333l-213.90222222 138.28096a18.31367111 18.31367111 0 0 0 0.25486222 30.87473778c81.99281778 51.55498667 181.75317333 77.71477333 287.63022223 67.26542222" p-id="5351" fill="#707070"></path><path d="M439.18222222 329.95555555a54.79537778 54.79537778 0 0 0-54.52231111 51.77344l-0.09102222 3.24039112v254.06122666c0 9.64835555 2.53041778 19.13287111 7.31818666 27.48871112a54.41308445 54.41308445 0 0 0 71.67089778 21.73610666l2.91271112-1.58378666 218.45333333-127.03061334a55.25048889 55.25048889 0 0 0 2.83989333-93.51623111l-2.82168889-1.76583111L466.48888889 337.32835555a54.30385778 54.30385778 0 0 0-27.30666667-7.3728z" p-id="5352" fill="#707070"></path></svg>