<?xml version="1.0" standalone="no"?><!DOCTYPE svg PUBLIC "-//W3C//DTD SVG 1.1//EN" "http://www.w3.org/Graphics/SVG/1.1/DTD/svg11.dtd"><svg t="1774353960882" class="icon" viewBox="0 0 1024 1024" version="1.1" xmlns="http://www.w3.org/2000/svg" p-id="11359" xmlns:xlink="http://www.w3.org/1999/xlink" width="200" height="200"><path d="M793.25 118.25c31.05 0 56.25 22.05 56.25 49.219V856.53c0 27.169-25.2 49.219-56.25 49.219h-562.5c-31.05 0-56.25-22.05-56.25-49.219V167.47c0-27.169 25.2-49.219 56.25-49.219h562.5z m-22.5 56.25h-517.5a22.5 22.5 0 0 0-22.5 22.5v630c0 12.375 10.125 22.5 22.5 22.5h517.5a22.5 22.5 0 0 0 22.5-22.5V197a22.5 22.5 0 0 0-22.5-22.5z m-61.875 506.25a28.125 28.125 0 1 1 0 56.25h-393.75a28.125 28.125 0 1 1 0-56.25h393.75z m0-168.75a28.125 28.125 0 1 1 0 56.25h-393.75a28.125 28.125 0 0 1 0-56.25h393.75z m-168.75-168.75a28.125 28.125 0 0 1 0 56.25h-225a28.125 28.125 0 0 1 0-56.25h225z" p-id="11360" fill="#707070"></path></svg>