<?xml version="1.0" standalone="no"?><!DOCTYPE svg PUBLIC "-//W3C//DTD SVG 1.1//EN" "http://www.w3.org/Graphics/SVG/1.1/DTD/svg11.dtd"><svg t="1776442389278" class="icon" viewBox="0 0 1024 1024" version="1.1" xmlns="http://www.w3.org/2000/svg" p-id="5346" xmlns:xlink="http://www.w3.org/1999/xlink" width="200" height="200"><path d="M512 960C264.57 960 64 759.43 64 512S264.57 64 512 64s448 200.57 448 448-200.57 448-448 448z m0.43-83.66c201.01 0 364.01-163.01 364.01-364.01s-163-364.02-364.01-364.02-364.01 163.01-364.01 364.01 162.9 364.02 364.01 364.02zM371.99 343.92h280.03c15.44 0 27.96 12.52 27.96 27.96v280.13c0 15.44-12.52 27.96-27.96 27.96H371.99c-15.44 0-27.96-12.52-27.96-27.96V371.99c0-15.55 12.52-28.07 27.96-28.07z" p-id="5347" fill="#d81e06"></path></svg>